<?xml version="1.0" encoding="UTF-8"?>
<svg version="1.1" xmlns="http://www.w3.org/2000/svg" width="202" height="198">
<path d="M0 0 C7.00550187 4.25439314 13.20666346 9.70375746 18.78515625 15.69140625 C18.78515625 16.35140625 18.78515625 17.01140625 18.78515625 17.69140625 C19.40390625 17.93890625 20.02265625 18.18640625 20.66015625 18.44140625 C23.18874252 19.92880994 23.50354629 21.12818634 24.78515625 23.69140625 C25.36394531 23.96339844 25.94273438 24.23539063 26.5390625 24.515625 C29.48858148 26.05963407 31.40427282 28.12122251 33.72265625 30.50390625 C34.55667969 31.35597656 35.39070313 32.20804688 36.25 33.0859375 C37.08660156 33.94574219 37.92320313 34.80554687 38.78515625 35.69140625 C39.60242188 36.50867187 40.4196875 37.3259375 41.26171875 38.16796875 C52.8240385 49.7302885 61.56340469 60.25213913 63.09765625 77.12890625 C61.90317964 90.7459396 54.10698982 98.74662717 44.84765625 108.12890625 C44.07486328 108.94294922 43.30207031 109.75699219 42.50585938 110.59570312 C36.09275953 117.09553974 36.09275953 117.09553974 31.875 117.8203125 C28.78515625 117.69140625 28.78515625 117.69140625 26.28515625 116.19140625 C24.65460714 113.4738244 24.36233723 111.89577078 24.89355469 108.77832031 C27.42394364 102.85560269 33.80925992 98.51241586 38.4609375 94.25 C43.77698176 89.21171713 47.70795163 85.12652012 48.78515625 77.69140625 C48.92210512 65.48583819 39.62586878 56.88740107 31.78515625 48.69140625 C27.76141467 44.57738842 23.54350543 40.70771688 19.24609375 36.88476562 C16.63446827 34.52425798 14.25983048 32.1389785 12.03515625 29.40625 C10.07297535 26.66727978 10.07297535 26.66727978 7.78515625 25.69140625 C7.78515625 25.03140625 7.78515625 24.37140625 7.78515625 23.69140625 C6.30015625 23.19640625 6.30015625 23.19640625 4.78515625 22.69140625 C3.09641746 21.04710796 1.4321011 19.37756407 -0.21484375 17.69140625 C-6.42697774 12.1331811 -12.18056627 9.90901692 -20.47265625 10.24609375 C-28.66663707 11.57674021 -34.3192376 18.5138138 -40.02734375 24.06640625 C-40.67413086 24.69039307 -41.32091797 25.31437988 -41.98730469 25.95727539 C-47.20783708 31.20708307 -51.20256625 36.55190382 -51.71484375 44.12890625 C-51.07013306 56.2328295 -41.98383794 64.02827755 -33.87890625 71.984375 C-33.02622917 72.82193077 -33.02622917 72.82193077 -32.15632629 73.67640686 C-29.7813601 76.00536175 -27.40476073 78.33234643 -25.01416016 80.64526367 C-23.25160905 82.35340332 -21.50196703 84.07392597 -19.75390625 85.796875 C-19.21230865 86.3146904 -18.67071106 86.8325058 -18.11270142 87.36601257 C-15.1388237 90.31880599 -13.37680789 92.42288194 -13.21484375 96.69140625 C-14.55585758 100.16226556 -15.51616834 101.36644094 -18.90234375 102.94140625 C-27.43421221 102.29749165 -36.13535567 90.02672807 -42.0793457 84.12207031 C-43.29560695 82.91737389 -44.51633354 81.71716917 -45.74145508 80.52148438 C-58.61785778 67.95309665 -58.61785778 67.95309665 -62.21484375 59.69140625 C-62.53662598 59.05364258 -62.8584082 58.41587891 -63.18994141 57.75878906 C-66.72718557 50.61004955 -66.19993248 41.46580297 -64.62890625 33.8515625 C-62.18981876 26.76925801 -57.39083819 21.9336652 -52.21484375 16.69140625 C-51.1205239 15.51606303 -50.0281887 14.33886987 -48.9375 13.16015625 C-35.30043506 -1.35320896 -19.39220756 -9.36267518 0 0 Z " fill="#8249E9" transform="translate(68.21484375,9.30859375)"/>
<path d="M0 0 C2.6953125 0.52734375 2.6953125 0.52734375 5.1328125 2.08984375 C6.6953125 4.52734375 6.6953125 4.52734375 6.56811523 7.87451172 C5.56625196 12.06748467 4.40176282 13.49289346 1.29296875 16.41015625 C0.40287109 17.26738281 -0.48722656 18.12460938 -1.40429688 19.0078125 C-2.34080078 19.88050781 -3.27730469 20.75320312 -4.2421875 21.65234375 C-6.09128406 23.39793179 -7.93401673 25.15029201 -9.76953125 26.91015625 C-10.5905835 27.67730957 -11.41163574 28.44446289 -12.25756836 29.23486328 C-15.64696291 33.03050011 -16.61633688 36.70302803 -16.7421875 41.71484375 C-16.78214844 42.57464844 -16.82210937 43.43445313 -16.86328125 44.3203125 C-15.11295599 54.36938271 -8.44007667 61.10032019 -1.40234375 67.98828125 C-0.43642051 68.94994161 0.52853249 69.91257738 1.49256897 70.87612915 C3.50139837 72.87883826 5.51812626 74.8730806 7.54174805 76.86083984 C10.12361497 79.39728551 12.68982473 81.94887896 15.2509222 84.50627708 C17.23796088 86.48887042 19.23039002 88.46596869 21.22473335 90.4412117 C22.62984653 91.83325349 24.03259381 93.22768209 25.43528748 94.62216187 C33.3638805 102.40409931 39.70585581 107.51654216 51.15625 107.98828125 C59.73894291 106.43019238 65.15896485 100.65141035 71.0078125 94.65234375 C71.80509766 93.86214844 72.60238281 93.07195312 73.42382812 92.2578125 C78.75428395 86.86907583 83.10013628 82.22455849 83.1953125 74.27734375 C82.67470768 59.98963373 70.92757069 50.5783153 61.30859375 41.33984375 C59.85993243 39.9343345 58.41265832 38.52741159 56.96582031 37.12002563 C55.52613477 35.73250217 54.06587812 34.36642648 52.60546875 33.00073242 C51.7134375 32.13681885 50.82140625 31.27290527 49.90234375 30.3828125 C49.0925708 29.61606201 48.28279785 28.84931152 47.44848633 28.05932617 C45.1298771 24.71072621 45.2623145 22.51579182 45.6953125 18.52734375 C47.2578125 16.52734375 47.2578125 16.52734375 49.6953125 15.52734375 C56.21144485 15.67346516 58.93526817 17.90823258 63.22265625 22.36328125 C63.81526749 22.95726715 64.40787872 23.55125305 65.01844788 24.16323853 C66.26840144 25.42223177 67.51107906 26.6884855 68.74682617 27.96142578 C70.60817752 29.87699125 72.49185758 31.76798909 74.38085938 33.65625 C87.69799845 47.08972245 96.89537571 58.66046392 97.421875 78.2421875 C96.26067205 89.54337609 88.20800512 97.93955923 80.4453125 105.46484375 C79.55457031 106.37041016 78.66382813 107.27597656 77.74609375 108.20898438 C69.7719837 116.08472007 61.64416257 121.59921526 50.1953125 121.83984375 C33.7857372 121.68774676 23.2289805 112.53241602 12.1484375 101.37890625 C11.16480319 100.39729899 10.18072445 99.4161369 9.19622803 98.43539429 C7.14756283 96.39112071 5.10434138 94.34160148 3.06494141 92.28808594 C0.4673816 89.67341346 -2.14345083 87.07247653 -4.75852585 84.47533607 C-6.78873661 82.45602979 -8.81166987 80.42955356 -10.83255768 78.40092087 C-12.25370401 76.9768378 -13.68082697 75.55872696 -15.10809326 74.14077759 C-24.80282703 64.34084894 -30.54422637 55.53022408 -30.6796875 41.46484375 C-30.52047016 30.26570176 -27.62759969 25.04638938 -19.82373047 17.09033203 C-18.05328049 15.26866364 -16.3239371 13.41098058 -14.58984375 11.5546875 C-13.26721515 10.16905333 -11.94299378 8.78493776 -10.6171875 7.40234375 C-9.98780273 6.7261499 -9.35841797 6.04995605 -8.70996094 5.35327148 C-4.11706209 0.65697799 -4.11706209 0.65697799 0 0 Z " fill="#8248E9" transform="translate(92.3046875,70.47265625)"/>
<path d="M0 0 C0.66 0 1.32 0 2 0 C2 0.99 2 1.98 2 3 C2.99 3.33 3.98 3.66 5 4 C3.68 4.33 2.36 4.66 1 5 C1.27972656 5.69480469 1.55945313 6.38960937 1.84765625 7.10546875 C2 10 2 10 -0.31640625 13.11328125 C-1.38265686 14.19546587 -2.46551186 15.26148575 -3.5625 16.3125 C-4.08908203 16.86228516 -4.61566406 17.41207031 -5.15820312 17.97851562 C-8.01493786 20.79329097 -9.29524382 21.92636876 -13.40234375 22.35546875 C-14.25957031 22.23816406 -15.11679687 22.12085937 -16 22 C-16.33 22.66 -16.66 23.32 -17 24 C-17 22.68 -17 21.36 -17 20 C-17.33 21.32 -17.66 22.64 -18 24 C-18.66 24 -19.32 24 -20 24 C-20.33 24.66 -20.66 25.32 -21 26 C-22.32 25.34 -23.64 24.68 -25 24 C-24.67 22.02 -24.34 20.04 -24 18 C-23.34 18 -22.68 18 -22 18 C-22 17.34 -22 16.68 -22 16 C-20.7934375 15.2884375 -20.7934375 15.2884375 -19.5625 14.5625 C-16.7081924 13.20016328 -16.7081924 13.20016328 -16 10 C-15.21625 9.9175 -14.4325 9.835 -13.625 9.75 C-10.90210663 9.28138154 -10.90210663 9.28138154 -9.8125 7.1875 C-9.544375 6.465625 -9.27625 5.74375 -9 5 C-8.33333333 3.66666667 -7.66666667 2.33333333 -7 1 C-5.824375 1.309375 -5.824375 1.309375 -4.625 1.625 C-3.75875 1.74875 -2.8925 1.8725 -2 2 C-1.34 1.34 -0.68 0.68 0 0 Z " fill="#7C3CEA" transform="translate(33,17)"/>
<path d="M0 0 C0.66 0 1.32 0 2 0 C3.77410051 5.31531689 4.2577668 9.85618805 4.125 15.4375 C4.11597656 16.16904297 4.10695312 16.90058594 4.09765625 17.65429688 C4.07436153 19.43634298 4.0385019 21.21821759 4 23 C3.34 23.33 2.68 23.66 2 24 C2 23.34 2 22.68 2 22 C1.01 22 0.02 22 -1 22 C-1 22.66 -1 23.32 -1 24 C-1.99 24.33 -2.98 24.66 -4 25 C-4.66 24.67 -5.32 24.34 -6 24 C-6.33 25.65 -6.66 27.3 -7 29 C-7.99 28.67 -8.98 28.34 -10 28 C-9.84402344 27.34128906 -9.68804687 26.68257812 -9.52734375 26.00390625 C-8.75921287 21.62840517 -8.64805008 17.22648616 -8.48242188 12.79492188 C-8.29756397 9.08032436 -8.03350897 6.16963948 -6 3 C-3 5 -3 5 -2 7 C-1.34 4.69 -0.68 2.38 0 0 Z " fill="#7F43E8" transform="translate(185,130)"/>
<path d="M0 0 C3.3 0.33 6.6 0.66 10 1 C9.67 2.65 9.34 4.3 9 6 C8.01 6 7.02 6 6 6 C6.061875 6.763125 6.12375 7.52625 6.1875 8.3125 C6 11 6 11 4.8125 12.8125 C2.44017475 14.36678206 0.77958655 14.22537188 -2 14 C-2 13.01 -2 12.02 -2 11 C-2.66 11 -3.32 11 -4 11 C-4.33 12.65 -4.66 14.3 -5 16 C-5.99 15.67 -6.98 15.34 -8 15 C-7.67 14.34 -7.34 13.68 -7 13 C-7.33 12.67 -7.66 12.34 -8 12 C-8.33 11.01 -8.66 10.02 -9 9 C-8.34 9 -7.68 9 -7 9 C-6.67 7.35 -6.34 5.7 -6 4 C-5.34 4 -4.68 4 -4 4 C-4 3.34 -4 2.68 -4 2 C-3.01 2 -2.02 2 -1 2 C-0.67 1.34 -0.34 0.68 0 0 Z " fill="#8042ED" transform="translate(159,172)"/>
<path d="M0 0 C0.99 0 1.98 0 3 0 C4.28390625 -0.01740234 4.28390625 -0.01740234 5.59375 -0.03515625 C7.03234375 -0.04869141 7.03234375 -0.04869141 8.5 -0.0625 C9.4590625 -0.07410156 10.418125 -0.08570313 11.40625 -0.09765625 C14 0 14 0 17 1 C16.67 2.65 16.34 4.3 16 6 C14.68 6.33 13.36 6.66 12 7 C12 8.65 12 10.3 12 12 C10.35 11.67 8.7 11.34 7 11 C7.66 10.01 8.32 9.02 9 8 C7.5459375 7.566875 7.5459375 7.566875 6.0625 7.125 C3 6 3 6 2 4 C-0.01669827 2.86649466 -0.01669827 2.86649466 -2 2 C-1.34 2 -0.68 2 0 2 C0 1.34 0 0.68 0 0 Z " fill="#8142E7" transform="translate(48,7)"/>
<path d="M0 0 C0.66 0 1.32 0 2 0 C2 0.66 2 1.32 2 2 C2.99 2.66 3.98 3.32 5 4 C5 4.99 5 5.98 5 7 C5.66 7 6.32 7 7 7 C7 7.99 7 8.98 7 10 C6.01 9.67 5.02 9.34 4 9 C1.75 10.16666667 1.75 10.16666667 0 12 C0 12.99 0 13.98 0 15 C-2.84574968 13.72431911 -5.18089981 12.58503711 -7 10 C-6.6875 7.3125 -6.6875 7.3125 -6 5 C-5.38125 4.9175 -4.7625 4.835 -4.125 4.75 C-1.81562433 4.18741541 -1.81562433 4.18741541 -0.75 1.9375 C-0.5025 1.298125 -0.255 0.65875 0 0 Z " fill="#7C3FEA" transform="translate(170,111)"/>
<path d="M0 0 C0 3.38928559 -0.58766616 4.20729197 -2.4375 6.9375 C-4.25488647 9.62474666 -5.3779531 11.80396595 -6 15 C-4.35 15 -2.7 15 -1 15 C-1.33 16.98 -1.66 18.96 -2 21 C-5.20863349 21.35651483 -6.64001006 21.23683549 -9.375 19.4375 C-11 17 -11 17 -10.91796875 13.6875 C-9.81619988 9.26167102 -8.25736503 7.63022338 -4.9375 4.5625 C-4.01839844 3.69753906 -3.09929687 2.83257812 -2.15234375 1.94140625 C-1.08693359 0.98041016 -1.08693359 0.98041016 0 0 Z " fill="#793BED" transform="translate(104,106)"/>
<path d="M0 0 C0 0.66 0 1.32 0 2 C1.45833358 3.62514468 1.45833358 3.62514468 3 5 C2.01 5.33 1.02 5.66 0 6 C-0.99 7.485 -0.99 7.485 -2 9 C-4 10.25 -4 10.25 -6 11 C-6.66 10.67 -7.32 10.34 -8 10 C-7.39457203 3.58246347 -7.39457203 3.58246347 -5.6875 1.0625 C-4 0 -4 0 0 0 Z " fill="#7B3AEC" transform="translate(103,151)"/>
<path d="M0 0 C2.31306402 2.12073047 4.18141064 4.4486457 6 7 C3.5625 6.625 3.5625 6.625 1 6 C0.67 5.34 0.34 4.68 0 4 C-0.66 3.67 -1.32 3.34 -2 3 C-2 2.67 -2 2.34 -2 2 C-3.98 2 -5.96 2 -8 2 C-8.46522293 6.79308342 -8.46522293 6.79308342 -6.5 10.9375 C-6.005 11.288125 -5.51 11.63875 -5 12 C-8 12 -8 12 -9.6875 10.9375 C-11.74261634 7.90375684 -11.44464673 5.55717382 -11 2 C-7.88594826 -1.98598622 -4.53571788 -1.40763658 0 0 Z " fill="#A685E3" transform="translate(149,87)"/>
<path d="M0 0 C1.30048841 2.60097682 1.56471422 5.13955062 2 8 C0.68 8.33 -0.64 8.66 -2 9 C-2.33 14.94 -2.66 20.88 -3 27 C-3.66 26.67 -4.32 26.34 -5 26 C-5.44144135 16.80330526 -5.57930733 9.27585662 -1 1 C-0.67 0.67 -0.34 0.34 0 0 Z " fill="#9670D8" transform="translate(8,35)"/>
<path d="M0 0 C0.33 0.66 0.66 1.32 1 2 C-0.21958756 4.67371119 -1.18298261 6.75412136 -3 9 C-5.75 9.9375 -5.75 9.9375 -8 10 C-8.061875 10.61875 -8.12375 11.2375 -8.1875 11.875 C-9 14 -9 14 -11.5625 15.25 C-12.366875 15.4975 -13.17125 15.745 -14 16 C-14 16.66 -14 17.32 -14 18 C-14.66 18 -15.32 18 -16 18 C-14.6415798 14.95667235 -13.11536976 12.87690849 -10.7421875 10.546875 C-10.11699219 9.928125 -9.49179688 9.309375 -8.84765625 8.671875 C-8.19667969 8.03765625 -7.54570312 7.4034375 -6.875 6.75 C-6.21628906 6.1003125 -5.55757812 5.450625 -4.87890625 4.78125 C-3.25703357 3.18288273 -1.6306719 1.58938103 0 0 Z " fill="#A581EB" transform="translate(25,17)"/>
<path d="M0 0 C2.475 0.99 2.475 0.99 5 2 C4.375 3.875 4.375 3.875 3 6 C-0.125 7.25 -0.125 7.25 -3 8 C-3 8.66 -3 9.32 -3 10 C-3.66 10 -4.32 10 -5 10 C-5.93423645 6.98968256 -6.04449911 6.13349732 -5 3 C-3.35 2.67 -1.7 2.34 0 2 C0 1.34 0 0.68 0 0 Z " fill="#7A3BEB" transform="translate(75,17)"/>
<path d="M0 0 C2.12508244 3.18762365 2.5020163 5.26512223 3 9 C2.01 9 1.02 9 0 9 C-0.33 10.65 -0.66 12.3 -1 14 C-1.99 13.67 -2.98 13.34 -4 13 C-3.67 12.34 -3.34 11.68 -3 11 C-3.33 10.67 -3.66 10.34 -4 10 C-4.33 9.01 -4.66 8.02 -5 7 C-4.34 7 -3.68 7 -3 7 C-2.67 5.35 -2.34 3.7 -2 2 C-1.34 2 -0.68 2 0 2 C0 1.34 0 0.68 0 0 Z " fill="#7A3AE8" transform="translate(155,174)"/>
<path d="M0 0 C1.65 0.99 3.3 1.98 5 3 C3.29058339 6.41883322 0.41883322 9.29058339 -3 11 C-3.99 9.68 -4.98 8.36 -6 7 C-5.67 6.34 -5.34 5.68 -5 5 C-4.01 5 -3.02 5 -2 5 C-1.34 3.35 -0.68 1.7 0 0 Z " fill="#7A3AEB" transform="translate(106,48)"/>
<path d="M0 0 C0.86625 0.2784375 0.86625 0.2784375 1.75 0.5625 C3.99032525 1.16768484 3.99032525 1.16768484 6.125 0.4375 C6.74375 0.293125 7.3625 0.14875 8 0 C8.66 0.66 9.32 1.32 10 2 C9.01 2.66 8.02 3.32 7 4 C6.74969023 6.58380177 6.74969023 6.58380177 7 9 C5.35 8.67 3.7 8.34 2 8 C2.66 7.01 3.32 6.02 4 5 C2.68 4.34 1.36 3.68 0 3 C0 2.01 0 1.02 0 0 Z " fill="#7A3AEC" transform="translate(53,10)"/>
<path d="M0 0 C0.99 0 1.98 0 3 0 C3.68359375 1.671875 3.68359375 1.671875 4 4 C2.78515625 6.578125 2.78515625 6.578125 1.0625 9.25 C0.49660156 10.14203125 -0.06929687 11.0340625 -0.65234375 11.953125 C-1.09707031 12.62859375 -1.54179687 13.3040625 -2 14 C-2.33 12.68 -2.66 11.36 -3 10 C-2.01 9.67 -1.02 9.34 0 9 C0 6.03 0 3.06 0 0 Z " fill="#9267E4" transform="translate(184,152)"/>
<path d="M0 0 C4.76560621 1.40164889 7.95882443 4.15411474 11 8 C11 8.66 11 9.32 11 10 C9.68 10 8.36 10 7 10 C6.67 9.01 6.34 8.02 6 7 C4.68 7 3.36 7 2 7 C2.33 5.68 2.66 4.36 3 3 C2.01 2.67 1.02 2.34 0 2 C0 1.34 0 0.68 0 0 Z " fill="#9E75E8" transform="translate(107,48)"/>
<path d="M0 0 C2 2 2 2 2.0625 5.25 C0.66016102 10.1994317 -1.91850702 12.09073738 -6 15 C-6 13.68 -6 12.36 -6 11 C-5.01 11 -4.02 11 -3 11 C-3 9.68 -3 8.36 -3 7 C-2.01 7 -1.02 7 0 7 C0 4.69 0 2.38 0 0 Z " fill="#9C79E1" transform="translate(97,73)"/>
<path d="M0 0 C0.66 0.33 1.32 0.66 2 1 C0.6062718 5.43458973 -1.60582235 7.87378374 -5 11 C-5.66 10.34 -6.32 9.68 -7 9 C-6.01 9 -5.02 9 -4 9 C-4.33 7.68 -4.66 6.36 -5 5 C-3.68 4.67 -2.36 4.34 -1 4 C-0.67 2.68 -0.34 1.36 0 0 Z " fill="#8C62E2" transform="translate(126,97)"/>
<path d="M0 0 C0 3.41321235 -0.66867466 4.39472885 -2.5 7.1875 C-2.9640625 7.90292969 -3.428125 8.61835937 -3.90625 9.35546875 C-4.2671875 9.89816406 -4.628125 10.44085938 -5 11 C-5.99 10.67 -6.98 10.34 -8 10 C-8 10.66 -8 11.32 -8 12 C-8.66 12 -9.32 12 -10 12 C-8.52278578 8.54798361 -6.56205999 6.35038064 -3.875 3.75 C-3.15054688 3.04359375 -2.42609375 2.3371875 -1.6796875 1.609375 C-1.12539062 1.07828125 -0.57109375 0.5471875 0 0 Z " fill="#A382E5" transform="translate(104,106)"/>
<path d="M0 0 C7.48291572 6.15034169 7.48291572 6.15034169 10 10 C7.69 9.67 5.38 9.34 3 9 C3.66 8.67 4.32 8.34 5 8 C4.67 7.34 4.34 6.68 4 6 C1.47266765 5.34444881 1.47266765 5.34444881 -1 5 C-0.34 4.67 0.32 4.34 1 4 C0.67 2.68 0.34 1.36 0 0 Z " fill="#AD89EB" transform="translate(94,33)"/>
<path d="M0 0 C1.9375 0.6875 1.9375 0.6875 4 2 C4.75 4.625 4.75 4.625 5 7 C3.35 6.67 1.7 6.34 0 6 C-0.38218767 4.34385343 -0.71395102 2.67542976 -1 1 C-0.67 0.67 -0.34 0.34 0 0 Z " fill="#7E45E5" transform="translate(40,101)"/>
<path d="M0 0 C0.763125 0.309375 1.52625 0.61875 2.3125 0.9375 C4.18789677 1.67893593 6.08684652 2.36228217 8 3 C7.67 4.32 7.34 5.64 7 7 C5.02 6.34 3.04 5.68 1 5 C0.67 3.35 0.34 1.7 0 0 Z " fill="#7C41EC" transform="translate(78,141)"/>
<path d="M0 0 C2.475 0.495 2.475 0.495 5 1 C4.67 1.99 4.34 2.98 4 4 C4.99 4 5.98 4 7 4 C7.33 4.99 7.66 5.98 8 7 C8.66 7.66 9.32 8.32 10 9 C7 9 7 9 5.17578125 7.5390625 C4.56089844 6.90742188 3.94601563 6.27578125 3.3125 5.625 C2.68988281 4.99851563 2.06726563 4.37203125 1.42578125 3.7265625 C0 2 0 2 0 0 Z " fill="#8D63E1" transform="translate(70,135)"/>
<path d="M0 0 C-0.66 1.32 -1.32 2.64 -2 4 C-1.34 4.33 -0.68 4.66 0 5 C-1.98 5.33 -3.96 5.66 -6 6 C-6 4.02 -6 2.04 -6 0 C-2.25 -1.125 -2.25 -1.125 0 0 Z " fill="#7D3AF0" transform="translate(146,90)"/>
<path d="M0 0 C0.66 0.33 1.32 0.66 2 1 C1.67 1.33 1.34 1.66 1 2 C0.49389093 6.7954154 0.49389093 6.7954154 2.5 10.9375 C2.995 11.288125 3.49 11.63875 4 12 C1 12 1 12 -0.6875 10.9375 C-2.69861232 7.96871514 -2.31688362 5.48571978 -2 2 C-1.34 1.34 -0.68 0.68 0 0 Z " fill="#956FE1" transform="translate(140,87)"/>
<path d="M0 0 C1.30048841 2.60097682 1.56471422 5.13955062 2 8 C1.38125 8.12375 0.7625 8.2475 0.125 8.375 C-2.19120832 8.87197356 -2.19120832 8.87197356 -4 11 C-3.48964169 6.6109185 -2.47785723 3.66291938 0 0 Z " fill="#9165E2" transform="translate(8,35)"/>
<path d="M0 0 C0.66 0 1.32 0 2 0 C2 0.99 2 1.98 2 3 C2.99 3.33 3.98 3.66 5 4 C0.375 7 0.375 7 -3 7 C-3 6.34 -3 5.68 -3 5 C-2.34 5 -1.68 5 -1 5 C-0.67 3.35 -0.34 1.7 0 0 Z " fill="#8D61E5" transform="translate(155,183)"/>
<path d="M0 0 C2.31 0 4.62 0 7 0 C6.67 1.32 6.34 2.64 6 4 C4.125 4.625 4.125 4.625 2 5 C1.34 4.34 0.68 3.68 0 3 C0 2.01 0 1.02 0 0 Z " fill="#7C3BE7" transform="translate(105,167)"/>
<path d="M0 0 C0.78375 0.04125 1.5675 0.0825 2.375 0.125 C1.39933888 1.29459987 0.419375 2.46061177 -0.5625 3.625 C-1.10777344 4.2746875 -1.65304688 4.924375 -2.21484375 5.59375 C-2.68019531 6.0990625 -3.14554688 6.604375 -3.625 7.125 C-3.955 7.125 -4.285 7.125 -4.625 7.125 C-4.75 4.75 -4.75 4.75 -4.625 2.125 C-2.625 0.125 -2.625 0.125 0 0 Z " fill="#8657E0" transform="translate(32.625,25.875)"/>
<path d="M0 0 C0.66666667 1.33333333 1.33333333 2.66666667 2 4 C2.391875 4.639375 2.78375 5.27875 3.1875 5.9375 C4.24344992 8.61798826 3.75786685 10.27167933 3 13 C-0.09902323 9.90097677 0.0101421 7.60852615 -0.0625 3.25 C-0.041875 2.1775 -0.02125 1.105 0 0 Z " fill="#946DE1" transform="translate(62,113)"/>
<path d="M0 0 C0.763125 0.309375 1.52625 0.61875 2.3125 0.9375 C4.18789677 1.67893593 6.08684652 2.36228217 8 3 C8 4.65 8 6.3 8 8 C6.85073734 7.04578192 5.70569459 6.08647955 4.5625 5.125 C3.92441406 4.59132813 3.28632813 4.05765625 2.62890625 3.5078125 C1 2 1 2 0 0 Z " fill="#8B60DD" transform="translate(143,100)"/>
<path d="M0 0 C0 1.65 0 3.3 0 5 C-0.99 5 -1.98 5 -3 5 C-5.1875 2.5 -5.1875 2.5 -7 0 C-2.25 -1.125 -2.25 -1.125 0 0 Z " fill="#9A71E8" transform="translate(114,65)"/>
<path d="M0 0 C0.33 0.99 0.66 1.98 1 3 C0.01 3.33 -0.98 3.66 -2 4 C-3.21869929 6.50447516 -3.21869929 6.50447516 -4 9 C-4.99 8.34 -5.98 7.68 -7 7 C-4.69 4.69 -2.38 2.38 0 0 Z " fill="#8B62D9" transform="translate(162,166)"/>
<path d="M0 0 C0.66 0 1.32 0 2 0 C1.71872579 1.48117801 1.42466268 2.95993249 1.125 4.4375 C0.96257812 5.26121094 0.80015625 6.08492187 0.6328125 6.93359375 C0.31957031 7.95646484 0.31957031 7.95646484 0 9 C-0.99 9.495 -0.99 9.495 -2 10 C-3.04127245 6.6868604 -3.18574123 5.39801692 -1.6875 2.1875 C-1.130625 1.465625 -0.57375 0.74375 0 0 Z " fill="#8247E8" transform="translate(184,128)"/>
<path d="M0 0 C2 2 2 2 2 5 C2.99 5.33 3.98 5.66 5 6 C5 6.66 5 7.32 5 8 C6.32 8.33 7.64 8.66 9 9 C5.72965541 9.36337162 4.39116247 9.28544288 1.6875 7.3125 C-0.28544288 4.60883753 -0.36337162 3.27034459 0 0 Z " fill="#A98DE3" transform="translate(93,118)"/>
<path d="M0 0 C0.33 0.66 0.66 1.32 1 2 C1.66 2.33 2.32 2.66 3 3 C2.34 3.66 1.68 4.32 1 5 C0.34 5 -0.32 5 -1 5 C-1.33 5.66 -1.66 6.32 -2 7 C-2.99 7 -3.98 7 -5 7 C-3.70700306 4.11562221 -2.34058637 2.12780579 0 0 Z " fill="#936BE2" transform="translate(72,88)"/>
<path d="M0 0 C-0.75 1.9375 -0.75 1.9375 -2 4 C-4.125 4.75 -4.125 4.75 -6 5 C-6 5.66 -6 6.32 -6 7 C-6.66 7 -7.32 7 -8 7 C-6.13932792 2.84926997 -4.83061881 0 0 0 Z " fill="#9C77E4" transform="translate(17,28)"/>
<path d="M0 0 C0.66 0.33 1.32 0.66 2 1 C1.65120368 4.25543229 0.97866739 5.01873107 -1.5625 7.25 C-2.7690625 8.11625 -2.7690625 8.11625 -4 9 C-4 7.68 -4 6.36 -4 5 C-3.01 5 -2.02 5 -1 5 C-0.67 3.35 -0.34 1.7 0 0 Z " fill="#9A74E4" transform="translate(169,173)"/>
<path d="M0 0 C1 3 1 3 0.4375 5.0625 C-1.58618642 7.79007734 -3.78821942 8.1621442 -7 9 C-6.57847656 8.51789063 -6.15695313 8.03578125 -5.72265625 7.5390625 C-5.17480469 6.90742188 -4.62695312 6.27578125 -4.0625 5.625 C-3.51722656 4.99851563 -2.97195312 4.37203125 -2.41015625 3.7265625 C-0.93041376 2.04367666 -0.93041376 2.04367666 0 0 Z " fill="#936FD9" transform="translate(173,154)"/>
<path d="M0 0 C2.0625 0.4375 2.0625 0.4375 4 1 C4.33 2.32 4.66 3.64 5 5 C3.35 5.33 1.7 5.66 0 6 C-0.38218767 4.34385343 -0.71395102 2.67542976 -1 1 C-0.67 0.67 -0.34 0.34 0 0 Z " fill="#783CEA" transform="translate(160,102)"/>
<path d="M0 0 C1.65 0 3.3 0 5 0 C3.68 2.31 2.36 4.62 1 7 C-1 4 -1 4 -0.625 1.8125 C-0.41875 1.214375 -0.2125 0.61625 0 0 Z " fill="#9269E4" transform="translate(17,39)"/>
<path d="M0 0 C0.33 0 0.66 0 1 0 C1.05386629 2.12472576 1.09273071 4.24983652 1.125 6.375 C1.14820313 7.55835938 1.17140625 8.74171875 1.1953125 9.9609375 C1 13 1 13 -1 15 C-1.33 14.01 -1.66 13.02 -2 12 C-1.67 11.34 -1.34 10.68 -1 10 C-0.77377919 8.29636178 -0.59111527 6.58671299 -0.4375 4.875 C-0.35371094 3.96492187 -0.26992187 3.05484375 -0.18359375 2.1171875 C-0.12300781 1.41851562 -0.06242188 0.71984375 0 0 Z " fill="#AA8EE2" transform="translate(176,140)"/>
<path d="M0 0 C0.99 0.33 1.98 0.66 3 1 C3 2.32 3 3.64 3 5 C3.66 5 4.32 5 5 5 C5 6.98 5 8.96 5 11 C0 3.5 0 3.5 0 0 Z " fill="#9979DD" transform="translate(171,128)"/>
<path d="M0 0 C0.33 0.99 0.66 1.98 1 3 C1.66 3.33 2.32 3.66 3 4 C2.01 5.485 2.01 5.485 1 7 C0.34 7 -0.32 7 -1 7 C-1.33 7.99 -1.66 8.98 -2 10 C-1.125 2.25 -1.125 2.25 0 0 Z " fill="#9A75E4" transform="translate(64,98)"/>
<path d="M0 0 C2.9375 0.8125 2.9375 0.8125 6 2 C6.33 2.99 6.66 3.98 7 5 C7.66 5.66 8.32 6.32 9 7 C6 7 6 7 4.39453125 5.46875 C3.87246094 4.8190625 3.35039062 4.169375 2.8125 3.5 C2.28269531 2.8503125 1.75289062 2.200625 1.20703125 1.53125 C0.80871094 1.0259375 0.41039062 0.520625 0 0 Z " fill="#8B61DD" transform="translate(15,81)"/>
<path d="M0 0 C2.125 0.375 2.125 0.375 4 1 C3.67 2.32 3.34 3.64 3 5 C1.68 5 0.36 5 -1 5 C-1.33 4.01 -1.66 3.02 -2 2 C-1.34 1.34 -0.68 0.68 0 0 Z " fill="#783AEF" transform="translate(81,24)"/>
<path d="M0 0 C-2.91403262 1.94268841 -5.85808576 3.46395304 -9 5 C-9.66 4.34 -10.32 3.68 -11 3 C-7.16674383 0.29417212 -4.67461851 -0.32613618 0 0 Z " fill="#8858E2" transform="translate(43,8)"/>
<path d="M0 0 C2.125 0.375 2.125 0.375 4 1 C2.25 4.875 2.25 4.875 0 6 C0 5.01 0 4.02 0 3 C-0.66 2.67 -1.32 2.34 -2 2 C-1.34 1.34 -0.68 0.68 0 0 Z " fill="#9361E5" transform="translate(173,168)"/>
<path d="M0 0 C2.475 0.495 2.475 0.495 5 1 C5.33 1.99 5.66 2.98 6 4 C5.01 4.495 5.01 4.495 4 5 C2 3.625 2 3.625 0 2 C0 1.34 0 0.68 0 0 Z " fill="#9369E7" transform="translate(96,53)"/>
<path d="M0 0 C0.66 0 1.32 0 2 0 C2 0.66 2 1.32 2 2 C2.99 2.33 3.98 2.66 5 3 C1.25 6 1.25 6 -1 6 C-0.67 4.02 -0.34 2.04 0 0 Z " fill="#9464E5" transform="translate(85,25)"/>
<path d="M0 0 C2.31 1.98 4.62 3.96 7 6 C5.68 6.33 4.36 6.66 3 7 C1 4 1 4 0 0 Z " fill="#AE8EE8" transform="translate(157,96)"/>
<path d="M0 0 C1 3 1 3 1 7 C-0.98 7 -2.96 7 -5 7 C-3.35 4.69 -1.7 2.38 0 0 Z " fill="#9F7DE3" transform="translate(115,94)"/>
<path d="M0 0 C0.99 0.66 1.98 1.32 3 2 C3 2.66 3 3.32 3 4 C1.02 4.33 -0.96 4.66 -3 5 C-1.125 1.125 -1.125 1.125 0 0 Z " fill="#844BE1" transform="translate(118,58)"/>
<path d="M0 0 C-2.97 2.475 -2.97 2.475 -6 5 C-6.33 3.68 -6.66 2.36 -7 1 C-3.375 -1.125 -3.375 -1.125 0 0 Z " fill="#865DD9" transform="translate(118,112)"/>
<path d="M0 0 C2.475 0.495 2.475 0.495 5 1 C5 2.32 5 3.64 5 5 C3.68 5 2.36 5 1 5 C0.67 3.35 0.34 1.7 0 0 Z " fill="#7A38EC" transform="translate(32,93)"/>
<path d="M0 0 C1.65 1.65 3.3 3.3 5 5 C4.01 5.33 3.02 5.66 2 6 C2 5.34 2 4.68 2 4 C0.68 3.67 -0.64 3.34 -2 3 C-1.34 2.01 -0.68 1.02 0 0 Z " fill="#9A6EE8" transform="translate(80,19)"/>
</svg>
